<?xml version="1.0" standalone="no"?><!-- Generator: Gravit.io --><svg xmlns="http://www.w3.org/2000/svg" xmlns:xlink="http://www.w3.org/1999/xlink" style="isolation:isolate" viewBox="0 0 200 200" width="200" height="200"><defs><clipPath id="_clipPath_ntFm7iGjosMdc13FoveZqir6DMZZn8Un"><rect width="200" height="200"/></clipPath></defs><g clip-path="url(#_clipPath_ntFm7iGjosMdc13FoveZqir6DMZZn8Un)"><g id="Group"><path d="M 10.203 96.97 L 191.736 96.97 C 196.297 96.97 200 100.673 200 105.233 L 200 119.979 C 200 124.54 196.297 128.242 191.736 128.242 L 10.203 128.242 C 5.642 128.242 1.939 124.54 1.939 119.979 L 1.939 105.233 C 1.939 100.673 5.642 96.97 10.203 96.97 Z" style="stroke:none;fill:#F76E1B;stroke-miterlimit:10;"/><path d="M 22.455 86.545 L 179.485 86.545 C 185.054 86.545 189.576 91.067 189.576 96.637 L 189.576 128.575 C 189.576 134.145 185.054 138.667 179.485 138.667 L 22.455 138.667 C 16.885 138.667 12.364 134.145 12.364 128.575 L 12.364 96.637 C 12.364 91.067 16.885 86.545 22.455 86.545 Z" style="stroke:none;fill:#C55007;stroke-miterlimit:10;"/><path d="M 90.545 138.667 L 111.394 138.667 C 127.216 138.667 140.061 151.512 140.061 167.333 L 140.061 167.333 C 140.061 183.155 127.216 196 111.394 196 L 90.545 196 C 74.724 196 61.879 183.155 61.879 167.333 L 61.879 167.333 C 61.879 151.512 74.724 138.667 90.545 138.667 Z" style="stroke:none;fill:#F76E1B;stroke-miterlimit:10;"/><path d=" M 22.788 102.182 C 22.788 59.032 57.82 24 100.97 24 C 144.119 24 179.152 59.032 179.152 102.182 C 179.152 145.332 144.119 180.364 100.97 180.364 C 57.82 180.364 22.788 145.332 22.788 102.182 Z " fill="rgb(247,110,27)"/><path d="M 61.879 76.121 L 140.061 76.121 C 150.129 76.121 158.303 84.295 158.303 94.364 L 158.303 94.364 C 158.303 104.432 150.129 112.606 140.061 112.606 L 61.879 112.606 C 51.811 112.606 43.636 104.432 43.636 94.364 L 43.636 94.364 C 43.636 84.295 51.811 76.121 61.879 76.121 Z" style="stroke:none;fill:#C55007;stroke-miterlimit:10;"/><path d="M 90.545 123.03 L 90.545 123.03 C 93.422 123.03 95.758 125.366 95.758 128.242 L 95.758 143.879 C 95.758 146.755 93.422 149.091 90.545 149.091 L 90.545 149.091 C 87.669 149.091 85.333 146.755 85.333 143.879 L 85.333 128.242 C 85.333 125.366 87.669 123.03 90.545 123.03 Z" style="stroke:none;fill:#C55007;stroke-miterlimit:10;"/><path d="M 111.394 123.03 L 111.394 123.03 C 114.271 123.03 116.606 125.366 116.606 128.242 L 116.606 143.879 C 116.606 146.755 114.271 149.091 111.394 149.091 L 111.394 149.091 C 108.517 149.091 106.182 146.755 106.182 143.879 L 106.182 128.242 C 106.182 125.366 108.517 123.03 111.394 123.03 Z" style="stroke:none;fill:#C55007;stroke-miterlimit:10;"/><path d="M 85.333 154.303 L 116.606 154.303 C 119.483 154.303 121.818 156.639 121.818 159.515 L 121.818 159.515 C 121.818 162.392 119.483 164.727 116.606 164.727 L 85.333 164.727 C 82.457 164.727 80.121 162.392 80.121 159.515 L 80.121 159.515 C 80.121 156.639 82.457 154.303 85.333 154.303 Z" style="stroke:none;fill:#C55007;stroke-miterlimit:10;"/></g><g id="Group"><path d=" M 52.47 95 C 52.47 86.721 59.191 80 67.47 80 C 75.748 80 82.47 86.721 82.47 95 C 82.47 103.279 75.748 110 67.47 110 C 59.191 110 52.47 103.279 52.47 95 Z " fill="rgb(31,72,78)"/><path d=" M 55.197 95 C 55.197 88.226 60.696 82.727 67.47 82.727 C 74.243 82.727 79.742 88.226 79.742 95 C 79.742 101.774 74.243 107.273 67.47 107.273 C 60.696 107.273 55.197 101.774 55.197 95 Z " fill="rgb(103,186,214)"/><path d=" M 60.652 95 C 60.652 91.237 63.707 88.182 67.47 88.182 C 71.233 88.182 74.288 91.237 74.288 95 C 74.288 98.763 71.233 101.818 67.47 101.818 C 63.707 101.818 60.652 98.763 60.652 95 Z " fill="rgb(37,161,203)"/><path d=" M 66.106 90.909 C 66.106 88.651 67.939 86.818 70.197 86.818 C 72.455 86.818 74.288 88.651 74.288 90.909 C 74.288 93.167 72.455 95 70.197 95 C 67.939 95 66.106 93.167 66.106 90.909 Z " fill="rgb(226,227,227)"/></g><g id="Group"><path d=" M 119.47 95 C 119.47 86.721 126.191 80 134.47 80 C 142.748 80 149.47 86.721 149.47 95 C 149.47 103.279 142.748 110 134.47 110 C 126.191 110 119.47 103.279 119.47 95 Z " fill="rgb(31,72,78)"/><path d=" M 122.197 95 C 122.197 88.226 127.696 82.727 134.47 82.727 C 141.243 82.727 146.742 88.226 146.742 95 C 146.742 101.774 141.243 107.273 134.47 107.273 C 127.696 107.273 122.197 101.774 122.197 95 Z " fill="rgb(103,186,214)"/><path d=" M 127.652 95 C 127.652 91.237 130.707 88.182 134.47 88.182 C 138.233 88.182 141.288 91.237 141.288 95 C 141.288 98.763 138.233 101.818 134.47 101.818 C 130.707 101.818 127.652 98.763 127.652 95 Z " fill="rgb(37,161,203)"/><path d=" M 133.106 90.909 C 133.106 88.651 134.939 86.818 137.197 86.818 C 139.455 86.818 141.288 88.651 141.288 90.909 C 141.288 93.167 139.455 95 137.197 95 C 134.939 95 133.106 93.167 133.106 90.909 Z " fill="rgb(226,227,227)"/></g><rect x="5" y="30" width="4" height="72" transform="matrix(1,0,0,1,0,0)" fill="rgb(247,110,27)"/><rect x="191" y="30" width="4" height="72" transform="matrix(1,0,0,1,0,0)" fill="rgb(247,110,27)"/><path d="M 87.735 48 L 114.205 48 C 115.308 48 116.205 48.896 116.205 50 L 116.205 50 C 116.205 51.104 115.308 52 114.205 52 L 87.735 52 C 86.631 52 85.735 51.104 85.735 50 L 85.735 50 C 85.735 48.896 86.631 48 87.735 48 Z" style="stroke:none;fill:#C55007;stroke-miterlimit:10;"/><path d="M 87.735 33 L 114.205 33 C 115.308 33 116.205 33.896 116.205 35 L 116.205 35 C 116.205 36.104 115.308 37 114.205 37 L 87.735 37 C 86.631 37 85.735 36.104 85.735 35 L 85.735 35 C 85.735 33.896 86.631 33 87.735 33 Z" style="stroke:none;fill:#C55007;stroke-miterlimit:10;"/><path d="M 87.735 40.5 L 114.205 40.5 C 115.308 40.5 116.205 41.396 116.205 42.5 L 116.205 42.5 C 116.205 43.604 115.308 44.5 114.205 44.5 L 87.735 44.5 C 86.631 44.5 85.735 43.604 85.735 42.5 L 85.735 42.5 C 85.735 41.396 86.631 40.5 87.735 40.5 Z" style="stroke:none;fill:#C55007;stroke-miterlimit:10;"/></g></svg>