<?xml version="1.0" standalone="no"?><!-- Generator: Gravit.io --><svg xmlns="http://www.w3.org/2000/svg" xmlns:xlink="http://www.w3.org/1999/xlink" style="isolation:isolate" viewBox="0 0 200 200" width="200" height="200"><defs><clipPath id="_clipPath_BWDqtF7SwLWSH5bbpQjMtK2t3xtz1W7G"><rect width="200" height="200"/></clipPath></defs><g clip-path="url(#_clipPath_BWDqtF7SwLWSH5bbpQjMtK2t3xtz1W7G)"><path d=" M 182 200 L 182 131 C 182 85.743 145.257 49 100 49 L 100 49 C 54.743 49 18 85.743 18 131 L 18 200 L 182 200 Z " fill="rgb(195,54,70)"/><path d="M 100 29 L 100 29 C 112.97 29 123.5 39.53 123.5 52.5 L 123.5 127.5 C 123.5 140.47 112.97 151 100 151 L 100 151 C 87.03 151 76.5 140.47 76.5 127.5 L 76.5 52.5 C 76.5 39.53 87.03 29 100 29 Z" style="stroke:none;fill:#9B2A37;stroke-miterlimit:10;"/><path d=" M 28 131 C 28 115.822 40.322 103.5 55.5 103.5 C 70.678 103.5 83 115.822 83 131 C 83 146.178 70.678 158.5 55.5 158.5 C 40.322 158.5 28 146.178 28 131 Z " fill="rgb(246,225,172)"/><path d=" M 35.5 131 C 35.5 119.962 44.462 111 55.5 111 C 66.538 111 75.5 119.962 75.5 131 C 75.5 142.038 66.538 151 55.5 151 C 44.462 151 35.5 142.038 35.5 131 Z " fill="rgb(244,172,3)"/><path d=" M 117 131 C 117 115.822 129.322 103.5 144.5 103.5 C 159.678 103.5 172 115.822 172 131 C 172 146.178 159.678 158.5 144.5 158.5 C 129.322 158.5 117 146.178 117 131 Z " fill="rgb(246,225,172)"/><path d=" M 124.5 131 C 124.5 119.962 133.462 111 144.5 111 C 155.538 111 164.5 119.962 164.5 131 C 164.5 142.038 155.538 151 144.5 151 C 133.462 151 124.5 142.038 124.5 131 Z " fill="rgb(244,172,3)"/><rect x="63.25" y="166" width="73.5" height="24" transform="matrix(1,0,0,1,0,0)" fill="rgb(235,235,235)"/><rect x="63.25" y="171" width="73.5" height="1" transform="matrix(1,0,0,1,0,0)" fill="rgb(0,0,0)"/><rect x="63.25" y="174.5" width="73.5" height="1" transform="matrix(1,0,0,1,0,0)" fill="rgb(0,0,0)"/><rect x="63.25" y="178" width="73.5" height="1" transform="matrix(1,0,0,1,0,0)" fill="rgb(0,0,0)"/><rect x="63.25" y="181.5" width="73.5" height="1" transform="matrix(1,0,0,1,0,0)" fill="rgb(0,0,0)"/><rect x="63.25" y="185" width="73.5" height="1" transform="matrix(1,0,0,1,0,0)" fill="rgb(0,0,0)"/></g></svg>