<?xml version="1.0" standalone="no"?><!-- Generator: Gravit.io --><svg xmlns="http://www.w3.org/2000/svg" xmlns:xlink="http://www.w3.org/1999/xlink" style="isolation:isolate" viewBox="0 0 200 200" width="200" height="200"><defs><clipPath id="_clipPath_qWdgEYOhPdxn7LEE7kcrbvZICeenHuQX"><rect width="200" height="200"/></clipPath></defs><g clip-path="url(#_clipPath_qWdgEYOhPdxn7LEE7kcrbvZICeenHuQX)"><g id="Group"><rect x="96.476" y="16.762" width="7.048" height="42.286" transform="matrix(1,0,0,1,0,0)" fill="rgb(221,143,50)"/><path d="M 100 52 L 100 52 C 109.724 52 117.619 59.895 117.619 69.619 L 117.619 76.667 C 117.619 86.391 109.724 94.286 100 94.286 L 100 94.286 C 90.276 94.286 82.381 86.391 82.381 76.667 L 82.381 69.619 C 82.381 59.895 90.276 52 100 52 Z" style="stroke:none;fill:#8A3359;stroke-miterlimit:10;"/><path d=" M 166.952 164.762 L 166.952 126 C 166.952 89.048 136.952 59.048 100 59.048 L 100 59.048 C 63.048 59.048 33.048 89.048 33.048 126 L 33.048 164.762 L 166.952 164.762 Z " fill="rgb(193,62,91)"/><rect x="33.048" y="157.714" width="133.905" height="35.238" transform="matrix(1,0,0,1,0,0)" fill="rgb(176,47,79)"/><rect x="26" y="164.762" width="148" height="35.238" transform="matrix(1,0,0,1,0,0)" fill="rgb(183,62,92)"/><path d=" M 89.429 13.238 C 89.429 7.404 94.165 2.667 100 2.667 C 105.835 2.667 110.571 7.404 110.571 13.238 C 110.571 19.073 105.835 23.81 100 23.81 C 94.165 23.81 89.429 19.073 89.429 13.238 Z " fill="rgb(220,64,103)"/><path d=" M 54.19 118.952 C 54.19 109.228 62.085 101.333 71.81 101.333 C 81.534 101.333 89.429 109.228 89.429 118.952 C 89.429 128.677 81.534 136.571 71.81 136.571 C 62.085 136.571 54.19 128.677 54.19 118.952 Z " fill="rgb(235,235,235)"/><path d=" M 110.571 118.952 C 110.571 109.228 118.466 101.333 128.19 101.333 C 137.915 101.333 145.81 109.228 145.81 118.952 C 145.81 128.677 137.915 136.571 128.19 136.571 C 118.466 136.571 110.571 128.677 110.571 118.952 Z " fill="rgb(235,235,235)"/><path d=" M 124.667 118.952 C 124.667 117.008 126.246 115.429 128.19 115.429 C 130.135 115.429 131.714 117.008 131.714 118.952 C 131.714 120.897 130.135 122.476 128.19 122.476 C 126.246 122.476 124.667 120.897 124.667 118.952 Z " fill="rgb(221,143,50)"/><path d=" M 68.286 118.952 C 68.286 117.008 69.865 115.429 71.81 115.429 C 73.754 115.429 75.333 117.008 75.333 118.952 C 75.333 120.897 73.754 122.476 71.81 122.476 C 69.865 122.476 68.286 120.897 68.286 118.952 Z " fill="rgb(221,143,50)"/></g></g></svg>